<svg width="20" height="20" viewBox="0 0 20 20" fill="none" xmlns="http://www.w3.org/2000/svg">
<path d="M7.64174 5.83333C7.48653 5.98947 7.39941 6.20068 7.39941 6.42083C7.39941 6.64099 7.48653 6.8522 7.64174 7.00833L10.5917 10L7.64174 12.95C7.48653 13.1061 7.39941 13.3173 7.39941 13.5375C7.39941 13.7577 7.48653 13.9689 7.64174 14.125C7.71921 14.2031 7.81138 14.2651 7.91293 14.3074C8.01448 14.3497 8.1234 14.3715 8.23341 14.3715C8.34342 14.3715 8.45234 14.3497 8.55389 14.3074C8.65544 14.2651 8.74761 14.2031 8.82507 14.125L12.3584 10.5917C12.4365 10.5142 12.4985 10.422 12.5408 10.3205C12.5831 10.2189 12.6049 10.11 12.6049 10C12.6049 9.88999 12.5831 9.78107 12.5408 9.67952C12.4985 9.57797 12.4365 9.4858 12.3584 9.40833L8.82507 5.83333C8.74761 5.75523 8.65544 5.69323 8.55389 5.65093C8.45234 5.60862 8.34342 5.58683 8.23341 5.58683C8.1234 5.58683 8.01448 5.60862 7.91293 5.65093C7.81138 5.69323 7.71921 5.75523 7.64174 5.83333Z" fill="#828282"/>
</svg>
