<svg width="16" height="16" viewBox="0 0 16 16" fill="none" xmlns="http://www.w3.org/2000/svg">
<path d="M7.3335 4.66665H8.66683C9.02045 4.66665 9.35959 4.80712 9.60964 5.05717C9.85969 5.30722 10.0002 5.64636 10.0002 5.99998V6.66665H8.66683V5.99998H7.3335V9.99998H8.66683V9.33331H10.0002V9.99998C10.0002 10.3536 9.85969 10.6927 9.60964 10.9428C9.35959 11.1928 9.02045 11.3333 8.66683 11.3333H7.3335C6.97987 11.3333 6.64074 11.1928 6.39069 10.9428C6.14064 10.6927 6.00016 10.3536 6.00016 9.99998V5.99998C6.00016 5.64636 6.14064 5.30722 6.39069 5.05717C6.64074 4.80712 6.97987 4.66665 7.3335 4.66665ZM8.00016 1.33331C8.87564 1.33331 9.74255 1.50575 10.5514 1.84078C11.3602 2.17581 12.0952 2.66688 12.7142 3.28593C13.3333 3.90499 13.8243 4.63992 14.1594 5.44876C14.4944 6.25759 14.6668 7.1245 14.6668 7.99998C14.6668 9.76809 13.9645 11.4638 12.7142 12.714C11.464 13.9643 9.76827 14.6666 8.00016 14.6666C7.12468 14.6666 6.25778 14.4942 5.44894 14.1592C4.6401 13.8241 3.90517 13.3331 3.28612 12.714C2.03588 11.4638 1.3335 9.76809 1.3335 7.99998C1.3335 6.23187 2.03588 4.53618 3.28612 3.28593C4.53636 2.03569 6.23205 1.33331 8.00016 1.33331ZM8.00016 2.66665C6.58567 2.66665 5.22912 3.22855 4.22893 4.22874C3.22873 5.22894 2.66683 6.58549 2.66683 7.99998C2.66683 9.41447 3.22873 10.771 4.22893 11.7712C5.22912 12.7714 6.58567 13.3333 8.00016 13.3333C9.41465 13.3333 10.7712 12.7714 11.7714 11.7712C12.7716 10.771 13.3335 9.41447 13.3335 7.99998C13.3335 6.58549 12.7716 5.22894 11.7714 4.22874C10.7712 3.22855 9.41465 2.66665 8.00016 2.66665Z" fill="#BEBEBE"/>
</svg>
